<?xml version="1.0" encoding="UTF-8"?>
<svg width="800" height="600" viewBox="0 0 800 600" fill="none" xmlns="http://www.w3.org/2000/svg">
  <!-- Stadium Outline -->
  <path d="M100 300 Q 400 100 700 300 Q 400 500 100 300" stroke="#2D3436" stroke-width="8" fill="#00B894" fill-opacity="0.1"/>
  
  <!-- Field -->
  <path d="M200 300 Q 400 180 600 300 Q 400 420 200 300" stroke="#2D3436" stroke-width="4" fill="#00B894" fill-opacity="0.2"/>
  
  <!-- Center Circle -->
  <circle cx="400" cy="300" r="40" stroke="#2D3436" stroke-width="2" fill="none"/>
  
  <!-- Center Line -->
  <line x1="400" y1="180" x2="400" y2="420" stroke="#2D3436" stroke-width="2"/>
  
  <!-- Goal Posts -->
  <line x1="220" y1="280" x2="220" y2="320" stroke="#2D3436" stroke-width="4"/>
  <line x1="580" y1="280" x2="580" y2="320" stroke="#2D3436" stroke-width="4"/>
  
  <!-- Stands -->
  <path d="M50 320 L 100 300 L 700 300 L 750 320" stroke="#2D3436" stroke-width="8" fill="none"/>
  <path d="M50 320 Q 400 550 750 320" stroke="#2D3436" stroke-width="8" fill="#00B894" fill-opacity="0.05"/>
  
  <!-- Crowd Pattern (simplified) -->
  <path d="M100 340 Q 400 540 700 340" stroke="#2D3436" stroke-width="1" stroke-dasharray="4 4"/>
  <path d="M100 360 Q 400 560 700 360" stroke="#2D3436" stroke-width="1" stroke-dasharray="4 4"/>
  <path d="M100 380 Q 400 580 700 380" stroke="#2D3436" stroke-width="1" stroke-dasharray="4 4"/>
</svg> 